# xmcd CD database file
#
# Track frame offsets:
#	150
#	15527
#	35555
#	55580
#	76212
#	99072
#	116597
#	132937
#	151387
#	165472
#	180972
#	198342
#
# Disc length: 2846 seconds
#
# Revision: 0
# Processed by: cddbd v1.5PL3 Copyright (c) Steve Scherf et al.
# Submitted via: CDex 1.50beta8
#
DISCID=820b1c0c
DTITLE=CCB - 僕たちNO-NO-NO-Plus
DYEAR=1994
DGENRE=Rock
TTITLE0=Here Comes The C-C-B
TTITLE1=Lucky Chanceをもう一度
TTITLE2=リスキー・ゲーム
TTITLE3=ジェラシ−
TTITLE4=噂のカタカナ・ボーイ
TTITLE5=アニメのようなA.B.C
TTITLE6=空想Kiss-2
TTITLE7=ラスト・ステップ
TTITLE8=Lucky Chanceをもう一度〜Single Mix
TTITLE9=サーフ・ブレイク
TTITLE10=空想Kiss
TTITLE11=御意見無用、花吹雪
EXTD=YEAR: 1994
EXTT0=
EXTT1=
EXTT2=
EXTT3=
EXTT4=
EXTT5=
EXTT6=
EXTT7=
EXTT8=
EXTT9=
EXTT10=
EXTT11=
PLAYORDER=
